Coordinates
version=1
nRows=14
nColumns=40
inDegrees=yes

Units are S.I. units (second, meters, Newtons, ...)
Angles are in degrees.

endheader
time	pelvis_tilt	pelvis_list	pelvis_rotation	pelvis_tx	pelvis_ty	pelvis_tz	hip_flexion_r	hip_adduction_r	hip_rotation_r	knee_angle_r	knee_angle_r_beta	ankle_angle_r	subtalar_angle_r	mtp_angle_r	hip_flexion_l	hip_adduction_l	hip_rotation_l	knee_angle_l	knee_angle_l_beta	ankle_angle_l	subtalar_angle_l	mtp_angle_l	lumbar_extension	lumbar_bending	lumbar_rotation	arm_flex_r	arm_add_r	arm_rot_r	elbow_flex_r	pro_sup_r	wrist_flex_r	wrist_dev_r	arm_flex_l	arm_add_l	arm_rot_l	elbow_flex_l	pro_sup_l	wrist_flex_l	wrist_dev_l
      0.00000000	     -3.03149278	      1.46200376	      9.94352208	     -1.16086572	      0.95654548	     -0.98958143	      7.25921336	     -1.89518027	    -16.26073878	    -16.79921781	     -0.29320166	      6.13090874	     -2.08626221	     -9.06467817	     22.29159375	      3.65055191	     11.02060588	    -42.50235025	     -0.74180595	      6.70272027	     15.28513719	     10.68370995	     -5.65155081	     -0.95782194	     -1.87870408	      3.29423700	    -13.03765001	    -14.09907363	     17.59187373	     89.95437384	      0.00000000	      0.00000000	      3.96898579	     13.09472216	      6.76410578	     26.40963928	     89.95437384	      0.00000000	      0.00000000
      0.01000000	     -3.24278452	      1.28830694	      9.83767355	     -1.15418386	      0.95590385	     -0.98935478	      6.93354061	     -1.63293210	    -16.58658357	    -16.53192098	     -0.28853645	      6.49238318	     -2.10845145	     -9.04415896	     23.36829435	      3.80944297	     11.34947313	    -40.90197494	     -0.71387413	      6.74277716	     15.16232422	     10.63047651	     -5.31403624	     -0.84631163	     -1.56952950	      3.84475200	    -13.19084134	    -13.92215975	     17.72071530	     89.95437384	      0.00000000	      0.00000000	      4.02264751	     13.01890328	      6.81762015	     26.58085625	     89.95437384	      0.00000000	      0.00000000
      0.02000000	     -3.45835602	      1.17130996	      9.68609156	     -1.14744071	      0.95521348	     -0.98908914	      6.62206966	     -1.43312955	    -16.70386132	    -16.31572748	     -0.28476316	      6.82903427	     -2.03386312	     -8.97719912	     24.33263473	      3.88061935	     11.55294409	    -39.09476935	     -0.68233245	      6.51464672	     14.73535756	     10.54679090	     -4.98846802	     -0.81480891	     -1.23824749	      4.38359195	    -13.29635656	    -13.65089258	     17.88361110	     89.95437384	      0.00000000	      0.00000000	      3.99229113	     12.94680572	      7.04994834	     26.81703495	     89.95437384	      0.00000000	      0.00000000
      0.03000000	     -2.96602429	      1.80317833	      9.32909773	     -1.14029527	      0.95623771	     -0.98914778	      5.22682008	     -1.90256375	    -16.32643915	    -15.72518565	     -0.27445627	      7.13299609	     -1.30572041	     -9.06025335	     23.84624497	      3.20731760	     11.94867105	    -36.27751872	     -0.63316215	      5.34434457	     14.10183491	     10.60630330	     -5.65695267	     -1.46223291	     -1.09104001	      5.35438131	    -13.36922482	    -12.67819987	     17.78248089	     89.95437384	      0.00000000	      0.00000000	      3.99299621	     12.60114427	      9.18957738	     26.94104792	     89.95437384	      0.00000000	      0.00000000
      0.04000000	     -3.20348051	      1.58282304	      9.18303968	     -1.13352608	      0.95521436	     -0.98900130	      5.02261913	     -1.63240634	    -16.59221547	    -15.63752871	     -0.27292636	      7.45390894	     -1.22217065	     -9.00349590	     24.80445294	      3.39996690	     12.10295135	    -34.45266490	     -0.60131244	      5.16870760	     13.45935269	     10.47023156	     -5.30849074	     -1.32283829	     -0.79927390	      5.89286717	    -13.47862605	    -12.41401717	     18.02829425	     89.95437384	      0.00000000	      0.00000000	      3.87867793	     12.53778469	      9.36148248	     27.10964706	     89.95437384	      0.00000000	      0.00000000
      0.05000000	     -2.84503085	      2.00915781	      8.88637771	     -1.12633180	      0.95561301	     -0.98926255	      3.86031242	     -2.01081929	    -16.76514538	    -15.18353348	     -0.26500265	      7.94651382	     -0.12308840	     -9.21151590	     24.50936050	      2.94085736	     12.33587647	    -31.73735949	     -0.55392142	      4.20889017	     12.32348276	     10.22432337	     -5.76519603	     -1.76780002	     -0.67469982	      6.70835322	    -13.57977910	    -11.14342160	     18.14711303	     89.95437384	      0.00000000	      0.00000000	      3.79647346	     12.23754775	     11.03929211	     27.14525218	     89.95437384	      0.00000000	      0.00000000
      0.06000000	     -2.97854755	      1.90033371	      8.67309137	     -1.11955603	      0.95469164	     -0.98923292	      3.51645346	     -1.85520802	    -16.77494171	    -15.07225965	     -0.26306056	      8.29221275	      0.22332434	     -9.24770532	     25.15350023	      3.02547534	     12.42050771	    -29.61492938	     -0.51687803	      3.66493148	     11.39344131	     10.10697221	     -5.58755175	     -1.73218198	     -0.42708548	      7.35539101	    -13.65165349	    -10.91071564	     18.38620075	     89.95437384	      0.00000000	      0.00000000	      3.67621599	     12.13574818	     11.43142714	     27.14972807	     89.95437384	      0.00000000	      0.00000000
      0.07000000	     -3.12367566	      1.65714202	      8.48611989	     -1.11262796	      0.95348891	     -0.98924290	      3.21829535	     -1.56790092	    -17.11644379	    -15.00874413	     -0.26195200	      8.65796113	      0.18954031	     -9.22281973	     26.02423242	      3.33795086	     12.79453588	    -28.02790086	     -0.48917915	      3.65598119	     10.99132732	      9.99975036	     -5.32729387	     -1.56196606	     -0.15017358	      7.88885864	    -13.68279924	    -10.73115984	     18.71350117	     89.95437384	      0.00000000	      0.00000000	      3.45663130	     12.08529657	     11.51017393	     27.14671589	     89.95437384	      0.00000000	      0.00000000
      0.08000000	     -2.60933744	      2.19396814	      7.88977632	     -1.10515975	      0.95395331	     -0.98918534	      2.05828882	     -2.07643166	    -16.87004411	    -14.91061167	     -0.26023927	      9.13260097	      1.17361866	     -9.54038702	     25.20465389	      2.94571317	     13.38862283	    -24.92061078	     -0.43494671	      2.44548965	      9.15971335	      9.94090837	     -6.00164767	     -2.15799145	      0.20516252	      8.80601845	    -13.68966329	    -10.01739974	     18.78931254	     89.95437384	      0.00000000	      0.00000000	      3.34859575	     11.82514513	     13.13188167	     27.00058771	     89.95437384	      0.00000000	      0.00000000
      0.09000000	     -2.49555491	      2.27562774	      7.48935678	     -1.09796928	      0.95331221	     -0.98929410	      1.45454464	     -2.18931801	    -16.97711266	    -14.92463859	     -0.26048408	      9.50558653	      2.03912859	     -9.94416969	     25.32757679	      3.00713319	     13.99000654	    -22.75241082	     -0.39710448	      1.80333838	      7.82521067	      9.65242733	     -6.12121195	     -2.30145602	      0.48522577	      9.43108857	    -13.73425572	     -9.22989870	     19.17654683	     89.95437384	      0.00000000	      0.00000000	      3.21633282	     11.66778234	     13.90270885	     26.65523298	     89.95437384	      0.00000000	      0.00000000
      0.10000000	     -2.53168097	      2.27161994	      7.10125427	     -1.09086747	      0.95232791	     -0.98913482	      1.01735350	     -2.13971888	    -16.77836446	    -14.87211906	     -0.25956744	      9.87253552	      2.27413369	    -10.18691153	     25.64528169	      3.12959071	     14.36860179	    -20.71170381	     -0.36148743	      1.15555726	      6.57592874	      9.54631215	     -6.05851829	     -2.41499760	      0.75917070	     10.15427729	    -13.63719109	     -8.99749696	     19.37873154	     89.95437384	      0.00000000	      0.00000000	      2.91849683	     11.65960509	     14.22515000	     26.45809225	     89.95437384	      0.00000000	      0.00000000
      0.11000000	     -2.44533749	      2.40333908	      6.58607243	     -1.08345056	      0.95146119	     -0.98923291	      0.52516473	     -2.27278067	    -16.43738342	    -15.03599658	     -0.26242765	     10.33915214	      2.44218931	    -10.47754067	     25.69430569	      3.18330423	     15.25378969	    -18.62320743	     -0.32503629	      0.67411793	      5.08120433	      9.45241847	     -6.14873587	     -2.63056569	      1.15496796	     10.74686333	    -13.62527402	     -8.55514949	     19.73835809	     89.95437384	      0.00000000	      0.00000000	      2.69066202	     11.52874724	     14.84666163	     26.08763581	     89.95437384	      0.00000000	      0.00000000
      0.12000000	     -2.18520225	      2.47307256	      6.02365943	     -1.07572903	      0.95080804	     -0.98905329	     -0.27877456	     -2.30596445	    -16.19564653	    -14.92098064	     -0.26042024	     10.56680978	      2.83496985	    -11.00594170	     25.59421359	      3.44250764	     16.38976433	    -16.85376503	     -0.29415369	      0.06515174	      2.90936099	      8.97799940	     -6.40294746	     -2.80225346	      1.51562487	     11.33069438	    -13.53695514	     -8.04342187	     20.22497478	     89.95437384	      0.00000000	      0.00000000	      2.28494075	     11.49060435	     15.36479875	     25.90381550	     89.95437384	      0.00000000	      0.00000000
      0.13000000	     -2.23139384	      2.62550716	      5.52704838	     -1.06835582	      0.94955342	     -0.98920949	     -0.56337331	     -2.50213185	    -15.80955623	    -15.21835671	     -0.26561043	     11.07062815	      2.76300993	    -11.31075164	     25.83350862	      3.44136204	     17.11152496	    -15.12917626	     -0.26405394	     -0.68967377	      1.52801649	      8.81735908	     -6.36029966	     -3.08186326	      1.82769925	     11.93977685	    -13.44310422	     -7.52080917	     20.59997201	     89.95437384	      0.00000000	      0.00000000	      1.98645713	     11.45850234	     15.82916461	     25.43376030	     89.95437384	      0.00000000	      0.00000000
